# xmcd CD database file
#
# Track frame offsets:
#	150
#	11199
#	22756
#	34920
#	50647
#	62798
#	73869
#	87068
#	99745
#	113262
#	127208
#	139581
#	152091
#	165885
#	177670
#	189800
#	203149
#	216773
#	229038
#	244649
#	260509
#	273814
#	286443
#	298239
#	311693
#	323187
#	332435
#	342849
#
# Disc length: 4742 seconds
#
# Revision: 1
# Processed by: cddbd v1.5.2PL0 Copyright (c) Steve Scherf et al.
# Submitted via: Feurio! 1.68 - http://www.feurio.com
#
DISCID=9612841c
DTITLE=Various Artist - Down Home Blues Classics: California and The West Coast 
DTITLE=1948-1954 - CD1
DYEAR=1900
DGENRE=blues
TTITLE0=KC Douglas - Mercury Blues
TTITLE1=Sidney Maiden - Eclipse Of The Sun
TTITLE2=Little Son Willis - Bad Luck And Trouble
TTITLE3=Little Son Willis - Operator Blues
TTITLE4=Black Diamond - T P Railer
TTITLE5=Black Diamond - Lonesome Blues
TTITLE6=Sonny Boy Johnson - Dessert Blues
TTITLE7=Sonny Boy Johnson - Come And Go With Me
TTITLE8=Willie B Huff - Beggar Man Blues
TTITLE9=Willie B Huff - I've Been Thinkin And Thinkin
TTITLE10=Brother Jackson - LC Boogie
TTITLE11=Junior Hampton - JH Stomp
TTITLE12=Little Son Willis - Harlem Blues
TTITLE13=Little Son Willis - I Love You Just The Same
TTITLE14=Sonny Boy Holmes - Walkin' And Cryin' Blues
TTITLE15=Sonny Boy Holmes - I've Got The $64000 Question Blues
TTITLE16=Jerry Perkins - P38 Stomp
TTITLE17=Jerry Perkins - My Baby's Last Goodbye
TTITLE18=Slim Green - Alla Blues
TTITLE19=Slim Green - Central Avenue Blues
TTITLE20=Ernest Mcclay - Big Timing Woman
TTITLE21=Ernest Mcclay - Night Working Woman
TTITLE22=Buddy Lewis - You've Got No Business
TTITLE23=Buddy Lewis - Lonesome Bedroom Blues
TTITLE24=Jerry Perkins - Katherine Blues
TTITLE25=Jerry Perkins - Knockin' The Boogie
TTITLE26=Al Prince - Don't Love A Married Woman
TTITLE27=Al Prince - Wine Talk
EXTD=
EXTT0=
EXTT1=
EXTT2=
EXTT3=
EXTT4=
EXTT5=
EXTT6=
EXTT7=
EXTT8=
EXTT9=
EXTT10=
EXTT11=
EXTT12=
EXTT13=
EXTT14=
EXTT15=
EXTT16=
EXTT17=
EXTT18=
EXTT19=
EXTT20=
EXTT21=
EXTT22=
EXTT23=
EXTT24=
EXTT25=
EXTT26=
EXTT27=
PLAYORDER=
